<svg width="709" height="116" viewBox="0 0 709 116" fill="none" xmlns="http://www.w3.org/2000/svg">
<mask id="mask0_7738_300" style="mask-type:luminance" maskUnits="userSpaceOnUse" x="0" y="0" width="270" height="116">
<path d="M0 0H269.764V115.65H0V0Z" fill="white"/>
</mask>
<g mask="url(#mask0_7738_300)">
<path d="M269.764 0H266.553V115.65H269.764H272.976V0H269.764Z" fill="#E9ECEF"/>
</g>
<path d="M61.4998 25.7001V0.963867H78.3858V3.36682H64.2199V12.2012H73.8994V14.5688H64.2199V25.7001H61.4998ZM83.765 25.7001V0.963867H100.651V3.36682H86.4851V12.0245H96.3058V14.3921H86.4851V23.2972H100.792V25.7001H83.765ZM104.036 25.7001L113.821 0.963867H117.071L126.715 25.7001H123.783L120.851 17.9259H109.829L106.897 25.7001H104.036ZM110.677 15.7703H120.039L115.34 3.43749L110.677 15.7703ZM133.386 25.7001V3.36682H124.837V0.963867H144.655V3.36682H136.106V25.7001H133.386ZM158.933 26.0888C156.906 26.0888 155.14 25.6529 153.634 24.7813C152.15 23.886 151.007 22.6258 150.207 21.0002C149.408 19.3747 149.006 17.4546 149.006 15.2402V0.963867H151.726V15.2402C151.726 16.9364 152.022 18.4087 152.609 19.6574C153.197 20.9061 154.035 21.8837 155.118 22.5904C156.2 23.2737 157.472 23.6152 158.933 23.6152C160.394 23.6152 161.666 23.2737 162.748 22.5904C163.83 21.8837 164.669 20.9061 165.256 19.6574C165.844 18.4087 166.14 16.9364 166.14 15.2402V0.963867H168.86V15.2402C168.86 17.4546 168.458 19.3747 167.659 21.0002C166.859 22.6258 165.716 23.886 164.232 24.7813C162.748 25.6529 160.982 26.0888 158.933 26.0888ZM175.356 25.7001V0.963867H185.495C187.072 0.963867 188.45 1.27002 189.628 1.88265C190.807 2.4715 191.725 3.29615 192.384 4.35627C193.042 5.4164 193.373 6.66509 193.373 8.10204C193.373 9.75102 192.914 11.1645 191.995 12.3425C191.077 13.4968 189.818 14.3096 188.215 14.7808L193.479 25.7001H190.476L185.46 15.1342H178.077V25.7001H175.356ZM178.077 12.8726H185.283C186.908 12.8726 188.202 12.4486 189.169 11.6005C190.158 10.7289 190.653 9.57434 190.653 8.13739C190.653 6.67666 190.158 5.52241 189.169 4.67431C188.202 3.80276 186.908 3.36682 185.283 3.36682H178.077V12.8726ZM198.935 25.7001V0.963867H215.821V3.36682H201.655V12.0245H211.476V14.3921H201.655V23.2972H215.962V25.7001H198.935ZM224.235 23.2618H229.887C231.676 23.2618 233.279 22.8259 234.692 21.9543C236.105 21.0828 237.222 19.9048 238.048 18.4206C238.896 16.913 239.319 15.2168 239.319 13.332C239.319 11.4472 238.896 9.76291 238.048 8.27873C237.222 6.7711 236.105 5.58119 234.692 4.70964C233.279 3.83809 231.676 3.40216 229.887 3.40216H224.235V23.2618ZM221.515 25.7001V0.963867H229.711C231.522 0.963867 233.182 1.28191 234.692 1.91798C236.22 2.53061 237.528 3.40215 238.613 4.53295C239.718 5.6403 240.566 6.94779 241.156 8.45542C241.767 9.93959 242.075 11.5651 242.075 13.332C242.075 15.0989 241.767 16.7363 241.156 18.2439C240.566 19.7281 239.718 21.0356 238.613 22.1664C237.528 23.2737 236.22 24.1453 234.692 24.7813C233.182 25.394 231.522 25.7001 229.711 25.7001H221.515ZM14.8691 64.6388C13.1028 64.6388 11.4521 64.3208 9.92344 63.6847C8.41405 63.0252 7.08448 62.118 5.93156 60.9637C4.77543 59.7857 3.88264 58.4313 3.24677 56.8999C2.6109 55.3451 2.29297 53.6723 2.29297 51.882C2.29297 50.0917 2.6109 48.4308 3.24677 46.8994C3.88264 45.3446 4.77543 43.9898 5.93156 42.8356C7.08448 41.6576 8.41405 40.7507 9.92344 40.1146C11.4521 39.4551 13.1028 39.1252 14.8691 39.1252C16.0927 39.1252 17.2585 39.29 18.3664 39.6199C19.4969 39.926 20.5566 40.3854 21.5458 40.998C22.5349 41.5869 23.4181 42.3174 24.1953 43.189L22.3936 45.0619C21.4751 43.9545 20.3447 43.1064 19.0023 42.5176C17.6824 41.9049 16.3047 41.5988 14.8691 41.5988C13.4786 41.5988 12.1843 41.858 10.9832 42.3762C9.78215 42.8944 8.73198 43.6249 7.83919 44.5671C6.96566 45.5094 6.28483 46.6048 5.79026 47.8535C5.29569 49.0784 5.04842 50.4213 5.04842 51.882C5.04842 53.319 5.29569 54.6618 5.79026 55.9105C6.28483 57.1592 6.96566 58.2546 7.83919 59.1969C8.73198 60.1391 9.78215 60.8696 10.9832 61.3878C12.1843 61.906 13.4786 62.1652 14.8691 62.1652C16.3047 62.1652 17.6824 61.8591 19.0023 61.2464C20.3447 60.6338 21.4751 59.7857 22.3936 58.7021L24.1953 60.575C23.4181 61.4466 22.5349 62.1887 21.5458 62.8013C20.5566 63.3901 19.4969 63.8495 18.3664 64.1794C17.2585 64.4856 16.0927 64.6388 14.8691 64.6388ZM40.4421 64.6388C38.724 64.6388 37.1215 64.3208 35.6378 63.6847C34.1541 63.0252 32.847 62.118 31.7165 60.9637C30.6086 59.7857 29.7383 58.4313 29.1024 56.8999C28.4665 55.3451 28.1486 53.6723 28.1486 51.882C28.1486 50.0917 28.4665 48.4308 29.1024 46.8994C29.7383 45.3446 30.6086 43.9898 31.7165 42.8356C32.847 41.6576 34.1541 40.7507 35.6378 40.1146C37.1215 39.4551 38.724 39.1252 40.4421 39.1252C42.1603 39.1252 43.7628 39.4551 45.2465 40.1146C46.7302 40.7507 48.0244 41.6576 49.1324 42.8356C50.2628 43.9898 51.146 45.3446 51.7819 46.8994C52.4177 48.4308 52.7357 50.0917 52.7357 51.882C52.7357 53.6723 52.4177 55.3451 51.7819 56.8999C51.146 58.4313 50.2628 59.7857 49.1324 60.9637C48.0244 62.118 46.7302 63.0252 45.2465 63.6847C43.7628 64.3208 42.1603 64.6388 40.4421 64.6388ZM40.4421 62.1652C41.7845 62.1652 43.0338 61.906 44.1867 61.3878C45.3396 60.8696 46.3545 60.1391 47.2248 59.1969C48.0951 58.2546 48.7663 57.1592 49.2384 55.9105C49.7329 54.6618 49.9802 53.319 49.9802 51.882C49.9802 50.4213 49.7329 49.0784 49.2384 47.8535C48.7663 46.6048 48.0951 45.5094 47.2248 44.5671C46.3545 43.6249 45.3396 42.8944 44.1867 42.3762C43.0338 41.858 41.7845 41.5988 40.4421 41.5988C39.0997 41.5988 37.8505 41.858 36.6975 42.3762C35.5446 42.8944 34.5298 43.6249 33.6595 44.5671C32.7892 45.5094 32.1051 46.6048 31.6106 47.8535C31.1385 49.0784 30.904 50.4097 30.904 51.8467C30.904 53.3074 31.1385 54.6618 31.6106 55.9105C32.1051 57.1592 32.7892 58.2546 33.6595 59.1969C34.5298 60.1391 35.5446 60.8696 36.6975 61.3878C37.8505 61.906 39.0997 62.1652 40.4421 62.1652ZM64.3677 64.2501L54.6883 39.5139H57.585L66.0633 61.6351L74.577 39.5139H77.3677L67.6177 64.2501H64.3677ZM81.5427 64.2501V39.5139H98.4287V41.9168H84.2628V50.5745H94.0835V52.9421H84.2628V61.8472H98.5699V64.2501H81.5427ZM104.119 64.2501V39.5139H114.258C115.838 39.5139 117.216 39.82 118.391 40.4326C119.57 41.0215 120.488 41.8461 121.147 42.9063C121.808 43.9664 122.136 45.2151 122.136 46.652C122.136 48.301 121.677 49.7145 120.758 50.8925C119.84 52.0468 118.581 52.8596 116.978 53.3308L122.242 64.2501H119.239L114.223 53.6842H106.839V64.2501H104.119ZM106.839 51.4226H114.046C115.671 51.4226 116.969 50.9986 117.932 50.1505C118.921 49.2789 119.416 48.1243 119.416 46.6874C119.416 45.2267 118.921 44.0724 117.932 43.2243C116.969 42.3528 115.671 41.9168 114.046 41.9168H106.839V51.4226ZM125.219 64.2501L135.004 39.5139H138.254L147.898 64.2501H144.966L142.034 56.4759H131.012L128.08 64.2501H125.219ZM131.86 54.3203H141.222L136.523 41.9875L131.86 54.3203ZM162.344 64.6388C160.577 64.6388 158.939 64.3089 157.433 63.6494C155.924 62.9899 154.594 62.0826 153.441 60.9284C152.311 59.7504 151.428 58.396 150.792 56.8646C150.156 55.3097 149.838 53.6489 149.838 51.882C149.838 50.1151 150.156 48.4661 150.792 46.9347C151.428 45.3799 152.311 44.0252 153.441 42.8709C154.594 41.6929 155.924 40.7741 157.433 40.1146C158.939 39.4551 160.577 39.1252 162.344 39.1252C164.225 39.1252 166.005 39.4667 167.678 40.1499C169.373 40.8332 170.809 41.8461 171.988 43.189L170.151 45.0265C169.232 43.9192 168.076 43.0711 166.689 42.4822C165.298 41.8934 163.85 41.5988 162.344 41.5988C160.953 41.5988 159.668 41.8696 158.493 42.4115C157.314 42.9297 156.277 43.6602 155.384 44.6025C154.511 45.5212 153.83 46.6048 153.335 47.8535C152.841 49.1022 152.593 50.445 152.593 51.882C152.593 53.319 152.841 54.6618 153.335 55.9105C153.83 57.1592 154.511 58.2546 155.384 59.1969C156.277 60.1156 157.314 60.8458 158.493 61.3878C159.668 61.906 160.953 62.1652 162.344 62.1652C163.991 62.1652 165.462 61.7999 166.759 61.0697C168.076 60.3395 169.136 59.3382 169.939 58.0661C170.761 56.7705 171.246 55.3216 171.387 53.7195H163.05V51.3166H174.142V52.4121C174.142 54.1317 173.847 55.7338 173.259 57.218C172.668 58.6787 171.833 59.9743 170.751 61.1051C169.691 62.2124 168.442 63.084 167.007 63.7201C165.568 64.3327 164.013 64.6388 162.344 64.6388ZM179.93 64.2501V39.5139H196.816V41.9168H182.65V50.5745H192.47V52.9421H182.65V61.8472H196.957V64.2501H179.93ZM211.425 64.2501V39.5139H214.145V64.2501H211.425ZM221.101 64.2501V39.5139H223.927L238.411 60.0096L238.34 39.5139H240.919V64.2501H238.446L223.609 43.295L223.68 64.2501H221.101Z" fill="#455F77"/>
<path d="M237.65 77.1001H44.9607C41.4134 77.1001 38.5377 79.9767 38.5377 83.5251V109.225C38.5377 112.774 41.4134 115.65 44.9607 115.65H237.65C241.197 115.65 244.072 112.774 244.072 109.225V83.5251C244.072 79.9767 241.197 77.1001 237.65 77.1001Z" fill="url(#paint0_linear_7738_300)"/>
<path d="M63.5937 83.3842C63.6515 83.2657 63.7414 83.1661 63.8538 83.0964C63.9662 83.0267 64.0947 82.9897 64.2296 82.9897C64.3612 82.9897 64.4897 83.0267 64.6021 83.0964C64.7145 83.1661 64.8044 83.2657 64.8654 83.3842L67.9548 89.6473C68.1572 90.0595 68.4591 90.4161 68.8316 90.6866C69.2041 90.9571 69.6345 91.1334 70.0905 91.1999L77.0016 92.2119C77.1333 92.2311 77.2553 92.2864 77.3581 92.3715C77.4576 92.457 77.5347 92.5688 77.5764 92.6947C77.615 92.8206 77.6214 92.9556 77.5893 93.0841C77.5572 93.2126 77.4897 93.3295 77.3966 93.422L72.3964 98.2915C72.0656 98.6131 71.8215 99.0098 71.677 99.4477C71.5357 99.8856 71.5003 100.351 71.5774 100.805L72.7592 107.686C72.7817 107.817 72.7689 107.951 72.7175 108.075C72.6693 108.198 72.5858 108.305 72.4766 108.383C72.3706 108.461 72.2422 108.507 72.1105 108.517C71.9756 108.526 71.844 108.498 71.7283 108.435L65.5462 105.185C65.1416 104.971 64.6888 104.859 64.2263 104.859C63.7671 104.859 63.3143 104.971 62.9064 105.185L56.7307 108.435C56.6119 108.497 56.4802 108.525 56.3486 108.516C56.2137 108.506 56.0884 108.46 55.9792 108.382C55.8733 108.304 55.7898 108.197 55.7416 108.074C55.6902 107.951 55.6774 107.816 55.6998 107.686L56.8785 100.807C56.9555 100.353 56.9234 99.8865 56.7789 99.4483C56.6376 99.0102 56.3903 98.6131 56.0595 98.2915L51.0625 93.4233C50.9661 93.3311 50.8987 93.2138 50.8666 93.0847C50.8345 92.9559 50.8377 92.8206 50.8794 92.6941C50.9212 92.5678 50.995 92.4554 51.0978 92.3699C51.2006 92.2845 51.3226 92.2292 51.4543 92.2106L58.3654 91.1999C58.8214 91.1337 59.255 90.9577 59.6275 90.6875C59.9968 90.417 60.2987 90.0601 60.5042 89.6473L63.5937 83.3842Z" fill="white"/>
<path d="M102.132 83.3842C102.189 83.2657 102.279 83.1661 102.392 83.0964C102.504 83.0267 102.636 82.9897 102.767 82.9897C102.899 82.9897 103.028 83.0267 103.14 83.0964C103.252 83.1661 103.342 83.2657 103.403 83.3842L106.493 89.6473C106.698 90.0595 106.997 90.4161 107.369 90.6866C107.742 90.9571 108.172 91.1334 108.628 91.1999L115.539 92.2119C115.671 92.2311 115.793 92.2864 115.896 92.3715C115.995 92.457 116.073 92.5688 116.114 92.6947C116.153 92.8206 116.159 92.9556 116.127 93.0841C116.095 93.2126 116.028 93.3295 115.934 93.422L110.934 98.2915C110.603 98.6131 110.359 99.0098 110.215 99.4477C110.074 99.8856 110.038 100.351 110.115 100.805L111.297 107.686C111.32 107.817 111.307 107.951 111.255 108.075C111.207 108.198 111.124 108.305 111.014 108.383C110.908 108.461 110.78 108.507 110.648 108.517C110.517 108.526 110.382 108.498 110.266 108.435L104.087 105.185C103.679 104.971 103.227 104.859 102.764 104.859C102.305 104.859 101.852 104.971 101.444 105.185L95.2686 108.435C95.1498 108.497 95.0181 108.525 94.8864 108.516C94.7515 108.506 94.6263 108.46 94.5171 108.382C94.4111 108.304 94.3276 108.197 94.2794 108.074C94.2281 107.951 94.2152 107.816 94.2377 107.686L95.4163 100.807C95.4934 100.353 95.4613 99.8865 95.3167 99.4483C95.1754 99.0102 94.9282 98.6131 94.5974 98.2915L89.6003 93.4233C89.504 93.3311 89.4365 93.2138 89.4044 93.0847C89.3723 92.9559 89.3755 92.8206 89.4173 92.6941C89.459 92.5678 89.5329 92.4554 89.6356 92.3699C89.7384 92.2845 89.8605 92.2292 89.9921 92.2106L96.9032 91.1999C97.3593 91.1337 97.7928 90.9577 98.1654 90.6875C98.5379 90.417 98.8365 90.0601 99.0421 89.6473L102.132 83.3842Z" fill="white"/>
<path d="M140.669 83.3842C140.727 83.2657 140.817 83.1661 140.929 83.0964C141.042 83.0267 141.17 82.9897 141.305 82.9897C141.437 82.9897 141.565 83.0267 141.678 83.0964C141.79 83.1661 141.88 83.2657 141.938 83.3842L145.03 89.6473C145.233 90.0595 145.535 90.4161 145.907 90.6866C146.276 90.9571 146.71 91.1334 147.166 91.1999L154.077 92.2119C154.209 92.2311 154.331 92.2864 154.434 92.3715C154.533 92.457 154.61 92.5688 154.649 92.6947C154.691 92.8206 154.697 92.9556 154.665 93.0841C154.633 93.2126 154.565 93.3295 154.472 93.422L149.472 98.2915C149.141 98.6131 148.894 99.0098 148.753 99.4477C148.611 99.8856 148.576 100.351 148.653 100.805L149.835 107.686C149.857 107.817 149.844 107.951 149.793 108.075C149.745 108.198 149.661 108.305 149.552 108.383C149.446 108.461 149.318 108.507 149.186 108.517C149.051 108.526 148.92 108.498 148.804 108.435L142.622 105.185C142.217 104.971 141.764 104.859 141.302 104.859C140.843 104.859 140.39 104.971 139.982 105.185L133.806 108.435C133.687 108.497 133.556 108.525 133.424 108.516C133.289 108.506 133.164 108.46 133.055 108.382C132.949 108.304 132.865 108.197 132.814 108.074C132.766 107.951 132.753 107.816 132.775 107.686L133.954 100.807C134.031 100.353 133.999 99.8865 133.854 99.4483C133.713 99.0102 133.466 98.6131 133.135 98.2915L128.138 93.4233C128.042 93.3311 127.974 93.2138 127.942 93.0847C127.91 92.9559 127.913 92.8206 127.955 92.6941C127.997 92.5678 128.071 92.4554 128.173 92.3699C128.276 92.2845 128.398 92.2292 128.53 92.2106L135.441 91.1999C135.897 91.1337 136.331 90.9577 136.7 90.6875C137.072 90.417 137.374 90.0601 137.58 89.6473L140.669 83.3842Z" fill="white"/>
<path d="M179.207 83.3842C179.265 83.2657 179.355 83.1661 179.467 83.0964C179.579 83.0267 179.711 82.9897 179.843 82.9897C179.975 82.9897 180.103 83.0267 180.215 83.0964C180.328 83.1661 180.418 83.2657 180.479 83.3842L183.568 89.6473C183.774 90.0595 184.072 90.4161 184.445 90.6866C184.817 90.9571 185.248 91.1334 185.704 91.1999L192.615 92.2119C192.747 92.2311 192.869 92.2864 192.971 92.3715C193.071 92.457 193.148 92.5688 193.19 92.6947C193.228 92.8206 193.235 92.9556 193.203 93.0841C193.17 93.2126 193.103 93.3295 193.01 93.422L188.01 98.2915C187.679 98.6131 187.435 99.0098 187.29 99.4477C187.149 99.8856 187.114 100.351 187.191 100.805L188.373 107.686C188.395 107.817 188.382 107.951 188.331 108.075C188.283 108.198 188.199 108.305 188.09 108.383C187.984 108.461 187.855 108.507 187.724 108.517C187.592 108.526 187.457 108.498 187.342 108.435L181.163 105.185C180.755 104.971 180.302 104.859 179.843 104.859C179.38 104.859 178.928 104.971 178.52 105.185L172.344 108.435C172.225 108.497 172.094 108.525 171.962 108.516C171.83 108.506 171.702 108.46 171.596 108.382C171.487 108.304 171.403 108.197 171.355 108.074C171.303 107.951 171.291 107.816 171.313 107.686L172.492 100.807C172.569 100.353 172.537 99.8865 172.392 99.4483C172.251 99.0102 172.004 98.6131 171.673 98.2915L166.676 93.4233C166.579 93.3311 166.512 93.2138 166.48 93.0847C166.448 92.9559 166.451 92.8206 166.493 92.6941C166.534 92.5678 166.608 92.4554 166.711 92.3699C166.814 92.2845 166.936 92.2292 167.068 92.2106L173.979 91.1999C174.435 91.1337 174.868 90.9577 175.241 90.6875C175.613 90.417 175.912 90.0601 176.118 89.6473L179.207 83.3842Z" fill="white"/>
<path d="M217.745 83.3842C217.803 83.2657 217.893 83.1661 218.005 83.0964C218.117 83.0267 218.246 82.9897 218.381 82.9897C218.512 82.9897 218.641 83.0267 218.753 83.0964C218.866 83.1661 218.956 83.2657 219.017 83.3842L222.106 89.6473C222.308 90.0595 222.61 90.4161 222.983 90.6866C223.355 90.9571 223.786 91.1334 224.242 91.1999L231.153 92.2119C231.284 92.2311 231.406 92.2864 231.509 92.3715C231.609 92.457 231.686 92.5688 231.728 92.6947C231.766 92.8206 231.773 92.9556 231.74 93.0841C231.708 93.2126 231.641 93.3295 231.548 93.422L226.547 98.2915C226.217 98.6131 225.973 99.0098 225.828 99.4477C225.687 99.8856 225.651 100.351 225.729 100.805L226.91 107.686C226.933 107.817 226.92 107.951 226.869 108.075C226.82 108.198 226.737 108.305 226.628 108.383C226.522 108.461 226.393 108.507 226.262 108.517C226.127 108.526 225.995 108.498 225.879 108.435L219.697 105.185C219.293 104.971 218.84 104.859 218.377 104.859C217.918 104.859 217.465 104.971 217.058 105.185L210.882 108.435C210.763 108.497 210.631 108.525 210.5 108.516C210.365 108.506 210.24 108.46 210.13 108.382C210.024 108.304 209.941 108.197 209.893 108.074C209.841 107.951 209.828 107.816 209.851 107.686L211.03 100.807C211.107 100.353 211.075 99.8865 210.93 99.4483C210.789 99.0102 210.541 98.6131 210.211 98.2915L205.214 93.4233C205.117 93.3311 205.05 93.2138 205.018 93.0847C204.986 92.9559 204.989 92.8206 205.031 92.6941C205.072 92.5678 205.146 92.4554 205.249 92.3699C205.352 92.2845 205.474 92.2292 205.605 92.2106L212.517 91.1999C212.973 91.1337 213.406 90.9577 213.779 90.6875C214.148 90.417 214.45 90.0601 214.655 89.6473L217.745 83.3842Z" fill="white"/>
<path d="M434.012 24.5316L432.747 24.8763C431.53 20.7408 429.491 18.954 426.613 18.954C424.59 18.954 423.167 20.2869 423.167 22.4001C423.167 24.423 424.847 25.5017 429.353 27.3351C433.511 28.8649 435.239 30.7397 435.239 34.0136C435.239 38.9974 431.324 42.1232 424.905 42.1232C421.802 42.1232 418.308 41.4322 416.336 40.6429L416.089 33.718L417.306 33.4716C419.13 38.2101 421.465 40.002 424.51 40.002C427.14 40.002 428.521 38.1757 428.521 36.3009C428.521 34.4261 427.455 33.3399 423.344 31.8596C419.429 30.5675 416.747 28.8986 416.747 24.7375C416.747 20.6419 420.348 17.1708 426.485 17.1708C429.378 17.1708 432.008 17.6642 433.736 18.4631L434.012 24.5316ZM407.521 26.7026C407.669 23.446 407.01 18.742 404.332 18.742C401.573 18.742 400.07 23.1341 400.022 26.9008L407.521 26.7026ZM404.987 17.1621C411.731 17.1621 414.978 22.0968 415.036 28.5774H399.874C399.826 34.3178 402.867 38.6605 408.555 38.6605C411.037 38.6605 412.47 37.9698 413.982 36.8843L414.689 37.6732C413.013 39.9435 409.557 42.1145 404.952 42.1145C397.552 42.1145 392.421 37.0314 392.421 29.8601C392.404 23.3789 396.615 17.1611 404.984 17.1611M383.117 29.1707C382.969 24.0388 381.097 19.9759 377.494 19.9759C376.639 19.9759 375.981 20.124 374.963 20.4693L375.258 40.1925C375.621 40.3406 376.476 40.4389 377.082 40.4389C380.586 40.4389 383.12 35.4875 383.12 29.1701M390.635 28.7756C390.635 36.8849 385.503 42.1152 376.835 42.1152C373.736 42.1152 370.537 41.6217 367.76 40.9805C368.007 37.724 368.007 17.5473 367.76 13.7565C367.512 11.775 366.953 10.8444 365.434 10.6548L364.413 10.5559V9.65125L375.107 7.67139C375.059 9.34895 374.96 13.7575 374.96 18.9402C376.835 18.0028 378.56 17.4602 380.898 17.4602C386.473 17.4602 390.632 22.1986 390.632 28.7772M363.386 24.3677C360.081 22.1967 356.529 23.1341 355.822 24.3677C355.508 28.1585 355.575 34.0171 355.871 37.0176C356.018 38.999 356.577 39.8304 358.106 39.9789L360.129 40.1768V41.4691H345.016V40.1768L346.185 39.9789C347.649 39.8304 348.166 38.9913 348.256 37.0176C348.619 33.8102 348.719 27.0826 348.256 23.3815C348.157 21.2596 347.649 20.4693 346.185 20.2798L345.016 20.1317V19.2444L355.819 17.1717L355.672 22.6982C358.205 16.9741 363.238 16.2835 365.968 17.8133L363.386 24.3677ZM327.931 29.6645C327.931 35.7011 329.569 40.6361 332.841 40.6361C336.393 40.6361 337.414 35.8004 337.414 29.6645C337.414 23.5286 335.841 18.742 332.504 18.742C328.936 18.742 327.931 23.4306 327.931 29.6645ZM345.067 29.5655C345.067 36.4904 340.494 42.1161 332.337 42.1161C324.315 42.1161 320.268 36.7705 320.268 29.7618C320.268 22.8867 324.841 17.1621 332.995 17.1621C341.021 17.1621 345.067 22.5414 345.067 29.5655ZM324.067 17.6652L322.391 18.1589C320.978 13.3068 318.476 10.543 314.17 10.543H308.543C308.232 13.7668 308.084 18.7507 308.232 24.1293L311.983 23.9311C314.513 23.9311 315.579 22.1045 316.19 19.4407H317.606V30.6578H316.19C315.583 27.9442 314.513 26.0919 311.983 25.954L308.232 25.9049C308.232 29.9022 308.28 33.3139 308.543 35.3962C308.79 38.3572 309.613 39.7055 311.783 39.9856L313.823 40.1838V41.4762H295.456V40.1838L296.985 39.9856C299.105 39.6891 299.978 38.3488 300.222 35.3962C300.633 30.5604 300.733 20.23 300.222 14.4896C299.978 11.4313 299.105 10.1967 296.985 9.94937L295.456 9.70297V8.36946H324.019L324.067 17.6652Z" fill="#1F3E5B"/>
<mask id="mask1_7738_300" style="mask-type:luminance" maskUnits="userSpaceOnUse" x="467" y="7" width="156" height="36">
<path d="M622.552 7.22852H467.354V42.566H622.552V7.22852Z" fill="white"/>
</mask>
<g mask="url(#mask1_7738_300)">
<path d="M616.363 10.6206C611.874 7.15046 603.363 7.33004 603.363 7.33004H588.741C587.033 7.33004 586.439 7.44055 586.554 8.15951C586.644 8.3227 586.776 8.46052 586.937 8.55978C587.097 8.65873 587.28 8.71624 587.47 8.72652C587.955 8.78402 588.404 9.0015 588.748 9.34331C589.088 9.68512 589.3 10.131 589.348 10.6068C589.348 11.7957 589.532 15.5287 589.532 16.8284V39.2536C589.532 39.9443 589.811 40.6067 590.309 41.0963C590.803 41.5862 591.481 41.8631 592.184 41.8667H600.907C604.619 41.8342 608.293 41.1358 611.749 39.8065C614.97 38.4903 617.719 36.2573 619.633 33.3956C621.547 30.5343 622.542 27.1759 622.488 23.7549C622.542 21.2546 622.022 18.7749 620.959 16.5001C619.899 14.2257 618.329 12.2163 616.363 10.6206ZM601.6 38.8395H601.26C599.227 38.8395 597.123 38.8395 596.025 37.7749C595.72 37.4337 595.492 37.0364 595.347 36.6065C595.206 36.1767 595.152 35.7228 595.19 35.2724V19.3862C595.19 16.1095 595.107 14.5749 595.19 10.8972C597.201 10.6206 599.23 10.4866 601.26 10.4963C605.114 10.4963 609.138 11.0077 612.551 14.6439C614.902 17.3293 616.123 20.7888 615.968 24.3222C615.952 33.2125 610.323 38.8395 601.6 38.8395ZM586.497 40.5679C586.025 40.3796 585.607 40.0808 585.28 39.6976C584.952 39.3143 584.724 38.8582 584.621 38.3695C584.621 37.7473 583.956 10.0401 583.956 10.0401C583.956 8.65744 583.956 7.56519 583.603 7.42706C582.608 7.29213 581.602 7.24588 580.597 7.2886C579.772 7.16717 578.927 7.2478 578.14 7.52375C577.633 8.34679 577.222 9.22349 576.914 10.1368L574.332 15.7641L571.804 20.4926L567.88 27.9447C567.812 28.2196 567.652 28.4644 567.427 28.6395C567.199 28.8146 566.919 28.9097 566.63 28.9097C566.341 28.9097 566.062 28.8146 565.834 28.6395C565.609 28.4644 565.449 28.2196 565.381 27.9447L561.315 20.6031L558.775 16.0266L555.952 10.0816C555.637 9.18012 555.236 8.30985 554.754 7.48231C553.874 7.2417 552.953 7.17134 552.044 7.27479H548.572C546.864 7.27479 546.087 7.27479 546.202 7.99375C546.292 8.1579 546.424 8.29636 546.584 8.39563C546.745 8.49489 546.928 8.55176 547.117 8.56075C547.548 8.74836 547.911 9.0558 548.161 9.44419C548.412 9.8329 548.54 10.2855 548.531 10.7453C548.531 11.3675 548.531 36.6136 548.389 37.7193C548.389 37.8989 548.389 38.0926 548.29 38.2863C548.245 38.809 548.042 39.3066 547.705 39.7137C547.368 40.121 546.912 40.4185 546.398 40.5675C546.209 40.5762 546.026 40.6331 545.862 40.7327C545.701 40.8319 545.57 40.9704 545.48 41.1342C545.367 41.8394 546.157 41.867 547.866 41.867H553.512C555.22 41.867 556.01 41.867 555.91 41.1342C555.821 40.9704 555.689 40.8319 555.528 40.7327C555.368 40.6331 555.185 40.5762 554.995 40.5675C554.497 40.4169 554.057 40.1294 553.723 39.7394C553.393 39.3494 553.181 38.8736 553.116 38.3692C552.988 37.7389 552.898 37.1016 552.85 36.461C552.85 35.0787 552.763 32.6728 552.779 31.2487V30.7649C552.779 29.3822 552.779 26.9764 552.863 25.5526L553.004 19.8977C553.004 18.515 553.64 18.3216 554.33 19.5796L558.142 26.4926C558.833 27.7506 562.488 34.5255 563.136 35.797C563.188 36.0553 563.291 36.3007 563.438 36.5198C563.589 36.7386 563.779 36.9262 564.003 37.0717C564.225 37.2169 564.475 37.3174 564.742 37.3669C565.005 37.4164 565.275 37.4138 565.539 37.3595C567.456 37.3595 567.456 36.8616 568.246 35.2027C568.827 33.9858 576.997 18.2381 576.997 18.2381C577.662 16.9663 578.24 17.0906 578.282 18.5147C578.282 18.5147 578.381 37.7052 578.282 38.5758V38.8662C578.166 39.271 577.944 39.6394 577.639 39.9369C577.334 40.2344 576.959 40.4512 576.548 40.5669C576.358 40.5772 576.172 40.6343 576.011 40.7336C575.851 40.8329 575.719 40.9704 575.629 41.1336C575.517 41.8387 576.307 41.8663 578.015 41.8663H585.071C586.792 41.8663 587.569 41.8663 587.47 41.1336C587.373 40.9652 587.229 40.8249 587.059 40.7256C586.888 40.6263 586.696 40.5727 586.497 40.5679Z" fill="#1F3E5B"/>
<path d="M509.704 10.7987C509.97 9.9374 510.503 9.1786 511.229 8.62798C511.483 8.60806 511.734 8.53482 511.955 8.41339C512.18 8.29163 512.376 8.12426 512.527 7.92284C512.655 7.41141 512.189 7.27295 510.327 7.27295H504.681C502.973 7.27295 502.183 7.27295 502.295 8.00572C502.385 8.16891 502.517 8.30673 502.677 8.406C502.838 8.50494 503.024 8.56245 503.213 8.57273C504.835 9.01509 505.921 9.83074 505.413 11.49C504.906 13.1489 497.847 33.4866 497.847 33.4866C497.581 34.2194 496.89 34.4269 496.678 33.3347L493.02 16.2178C492.712 14.8355 492.372 13.0105 492.246 12.2224C492.156 11.8867 491.951 11.5912 491.665 11.3849C491.382 11.1787 491.032 11.074 490.679 11.0884C490.358 11.0801 490.043 11.163 489.767 11.3274C489.494 11.4919 489.276 11.7309 489.141 12.0149C488.675 12.969 487.728 14.7802 487.079 16.0935L477.779 33.5968C477.396 34.2464 476.918 34.053 476.847 33.2788L475.688 15.5406C475.688 14.158 475.547 11.3927 475.563 10.9503C475.566 10.4045 475.755 9.87539 476.099 9.44717C476.446 9.01862 476.927 8.71568 477.467 8.58622C477.666 8.5708 477.859 8.50751 478.026 8.40118C478.193 8.29485 478.331 8.14931 478.427 7.97777C478.54 7.27262 477.708 7.28644 475.999 7.28644H468.944C467.813 7.31407 467.277 7.43871 467.36 8.01921C467.454 8.18241 467.585 8.32022 467.746 8.41917C467.906 8.51844 468.089 8.57594 468.279 8.58622C468.639 8.68163 468.969 8.85575 469.252 9.09508C469.535 9.33473 469.756 9.63317 469.901 9.96856C470.01 10.2127 470.103 10.4617 470.183 10.7151V10.9503C470.18 10.9962 470.18 11.0425 470.183 11.0888C470.514 12.6635 470.745 14.2563 470.877 15.8587L472.415 37.5376C472.377 39.0227 472.544 40.5059 472.91 41.948C473.347 42.8466 475.405 42.7913 476.224 41.5886C476.452 41.2429 488.068 19.882 488.068 19.882C488.746 18.6099 489.478 18.7204 489.831 20.1307L493.473 37.731C493.698 39.041 494.013 40.3347 494.417 41.602C494.912 42.8742 497.397 42.6529 498.059 41.4087C498.73 40.142 499.321 38.8351 499.825 37.4958C499.825 37.4958 509.309 11.9185 509.704 10.7987ZM540.319 19.094C535.788 19.094 531.651 23.1449 528.928 26.2145C529.072 25.3311 529.294 24.4614 529.593 23.6153L533.825 9.7893C533.941 9.50049 533.979 9.18824 533.938 8.88112C533.896 8.57401 533.777 8.28199 533.591 8.03238C533.401 7.78277 533.154 7.58359 532.868 7.45317C532.579 7.32274 532.264 7.26556 531.95 7.28676H528.379C526.67 7.28676 525.88 7.28676 525.98 8.01953C526.07 8.18273 526.201 8.32054 526.362 8.41949C526.522 8.51875 526.705 8.57626 526.895 8.58654C528.591 9.05653 529.153 10.9092 528.703 12.9276C528.703 12.7618 524.467 29.3525 524.467 29.3525C523.94 30.9889 523.025 32.4808 521.801 33.7076C521.801 33.7076 516.676 39.8326 511.512 39.8326C510.972 39.8853 510.426 39.823 509.916 39.6504C509.405 39.4776 508.936 39.1985 508.544 38.8319C508.153 38.4657 507.848 38.0204 507.649 37.5273C507.449 37.0342 507.359 36.5048 507.388 35.975C507.372 34.7337 507.504 33.4943 507.783 32.2835C513.175 31.7859 522.832 29.3525 522.832 22.6052C522.832 19.8399 520.164 19.0933 517.89 19.0933C510.581 19.0933 503.368 27.8313 503.368 35.6849C503.368 38.9893 504.935 42.3489 509.579 42.3489C518.301 42.3489 523.044 34.0533 523.311 33.7353C523.086 34.8343 522.945 35.948 522.887 37.0673C522.887 40.6759 525.569 42.3489 528.886 42.3489C531.51 42.2532 534.06 41.47 536.266 40.0812C538.167 38.961 539.882 37.5623 541.35 35.9336C544.15 33.0661 545.827 29.3187 546.077 25.3568C546.064 21.6791 544.397 19.1489 540.361 19.1489L540.319 19.094ZM516.763 20.7671C517.049 20.7491 517.334 20.7928 517.601 20.8949C517.867 20.9971 518.108 21.1551 518.307 21.3578C518.503 21.5609 518.654 21.8037 518.744 22.0694C518.837 22.3351 518.869 22.6175 518.837 22.8963C518.837 28.2882 512.739 30.6526 508.095 30.9568C508.843 27.68 512.838 20.7671 516.763 20.7671ZM539.741 32.4917C538.649 34.6669 537.22 36.6631 535.505 38.4091C534.028 40.0176 531.979 41.0077 529.776 41.1741C527.46 41.1741 526.699 39.0035 526.699 37.0265C526.699 31.4962 532.852 21.2097 539.105 21.2097C541.42 21.2097 542.124 22.7858 542.124 24.6661C541.905 27.4073 541.077 30.0682 539.699 32.4641L539.741 32.4917Z" fill="#1F3E5B"/>
<path d="M618.721 9.40109C618.721 8.95005 618.904 8.51765 619.228 8.19865C619.556 7.87965 619.996 7.70039 620.458 7.70039C620.917 7.70039 621.361 7.87965 621.685 8.19865C622.009 8.51765 622.192 8.95005 622.192 9.40109C622.192 9.85212 622.009 10.2845 621.685 10.6035C621.361 10.9225 620.917 11.1015 620.458 11.1015C619.996 11.1015 619.556 10.9225 619.228 10.6035C618.904 10.2845 618.721 9.85212 618.721 9.40109ZM620.458 11.5027C620.876 11.4944 621.283 11.3655 621.627 11.1317C621.974 10.8981 622.24 10.5701 622.395 10.1888C622.549 9.80747 622.587 9.38985 622.501 8.98796C622.414 8.58608 622.211 8.21793 621.913 7.92944C621.614 7.64128 621.235 7.44531 620.824 7.36661C620.413 7.28758 619.986 7.32934 619.601 7.48643C619.212 7.64353 618.881 7.90888 618.647 8.24941C618.412 8.58993 618.287 8.99053 618.284 9.40109C618.284 9.67865 618.338 9.95364 618.451 10.2097C618.56 10.4657 618.721 10.6977 618.923 10.892C619.125 11.0867 619.366 11.2396 619.629 11.3418C619.893 11.4442 620.172 11.4944 620.458 11.4889V11.5027ZM620.005 9.56718H620.429L621.078 10.6177H621.502L620.795 9.55304C620.882 9.55336 620.969 9.53601 621.049 9.50228C621.129 9.46823 621.2 9.41875 621.261 9.35643C621.319 9.29411 621.367 9.22055 621.396 9.14023C621.425 9.05992 621.438 8.97479 621.431 8.88965C621.438 8.78204 621.418 8.67474 621.373 8.57612C621.328 8.47782 621.261 8.3914 621.174 8.32362C621.091 8.25615 620.988 8.20957 620.882 8.18772C620.773 8.16588 620.66 8.16942 620.554 8.19833H619.623V10.6038H620.005V9.56718ZM620.005 9.26295V8.50255H620.513C620.782 8.50255 621.049 8.50255 621.049 8.86203C621.049 9.22151 620.766 9.24913 620.442 9.24913H620.005V9.26295Z" fill="#1F3E5B"/>
</g>
<mask id="mask2_7738_300" style="mask-type:luminance" maskUnits="userSpaceOnUse" x="295" y="68" width="145" height="41">
<path d="M439.187 68.2656H295.456V108.422H439.187V68.2656Z" fill="white"/>
</mask>
<g mask="url(#mask2_7738_300)">
<path d="M295.456 77.9838H304.012L308.977 90.7114L314.015 77.9838H322.352L309.812 108.153H301.436L304.879 100.176L295.456 77.9838ZM331.017 77.4759C324.6 77.4759 320.541 83.2417 320.541 88.9708C320.541 95.4254 324.999 100.538 330.908 100.538C335.33 100.538 336.997 97.855 336.997 97.855V99.9579H344.463V77.9838H336.997V79.9781C336.961 79.9781 335.112 77.4759 331.017 77.4759ZM332.61 84.5469C335.584 84.5469 337.106 86.9039 337.106 89.0071C337.106 91.2915 335.475 93.5397 332.61 93.5397C330.256 93.5397 328.117 91.6179 328.117 89.116C328.117 86.5775 329.819 84.5469 332.61 84.5469ZM347.004 99.9579V68.2656H354.795V80.0507C354.795 80.0507 356.645 77.4759 360.524 77.4759C365.274 77.4759 368.065 81.0295 368.065 86.0699V99.9579H360.306V87.9557C360.306 86.2511 359.509 84.5832 357.659 84.5832C355.774 84.5832 354.795 86.2511 354.795 87.9557V99.9579H347.004ZM381.367 77.4759C374.009 77.4759 369.622 83.0601 369.622 89.0797C369.622 95.8967 374.915 100.574 381.405 100.574C387.674 100.574 393.15 96.1145 393.15 89.1883C393.15 81.6097 387.385 77.4759 381.367 77.4759ZM381.44 84.5832C384.051 84.5832 385.827 86.759 385.827 89.0434C385.827 91.0015 384.157 93.4311 381.44 93.4311C378.939 93.4311 377.089 91.4367 377.089 89.0071C377.089 86.7227 378.611 84.5832 381.44 84.5832ZM406.127 77.4759C398.766 77.4759 394.38 83.0601 394.38 89.0797C394.38 95.8967 399.672 100.574 406.162 100.574C412.434 100.574 417.907 96.1145 417.907 89.1883C417.907 81.6097 412.181 77.4759 406.127 77.4759ZM406.198 84.5832C408.809 84.5832 410.585 86.759 410.585 89.0434C410.585 91.0015 408.918 93.4311 406.198 93.4311C403.696 93.4311 401.849 91.4367 401.849 89.0071C401.849 86.7227 403.407 84.5832 406.198 84.5832ZM424.07 90.0586C426.934 90.0586 429.253 92.3793 429.253 95.2442C429.253 98.1088 426.934 100.429 424.07 100.429C421.205 100.429 418.886 98.1088 418.886 95.2442C418.886 92.3793 421.205 90.0586 424.07 90.0586ZM430.958 88.1732H421.642L429.905 68.2656H439.186L430.958 88.1732Z" fill="#1F3E5B"/>
</g>
<mask id="mask3_7738_300" style="mask-type:luminance" maskUnits="userSpaceOnUse" x="471" y="70" width="238" height="37">
<path d="M708.149 70.6753H471.301V106.013H708.149V70.6753Z" fill="white"/>
</mask>
<g mask="url(#mask3_7738_300)">
<path d="M518.07 105.784L510.596 105.788L510.985 103.392L507.674 105.791L492.872 105.789L492.448 105.087C492.407 105.021 492.285 104.896 492.214 104.87C492.143 104.844 491.957 104.92 491.899 104.969L490.9 105.792L483.443 105.788L483.007 102.826L478.992 105.785L471.301 105.789L479.085 77.1672L486.231 71.4496L494.896 71.4538L495.268 73.3967L497.876 71.511L505.77 71.4592L528.102 71.4528L528.308 73.4141L530.854 71.5142H538.935L539.06 73.8513L542.339 71.51L550.38 71.5155L549.883 72.9768L551.864 71.5174L560.879 71.5123L561.01 74.6158L564.883 71.5187L574.001 71.4486L574.213 71.7802C576.043 71.0532 577.916 70.7949 579.862 70.7172C582.55 70.6095 585.935 71.0962 587.89 73.035L589.849 71.5132L604.359 71.5187C604.898 71.5187 605.589 71.6035 606 71.8428L607.583 72.7635L609.048 71.4538L618.175 71.4573L617.571 74.1667L617.687 74.212L621.283 71.511L630.487 71.527L620.256 84.4583L623.57 99.9612L616.299 105.788L607.076 105.792L606.263 103.291L606.055 103.273L602.583 105.789L585.874 105.792L586.375 103.718L583.343 105.79L575.417 105.792L576.066 102.507C574.084 103.73 572.199 104.788 570.012 105.465C567.979 106.094 565.914 106.105 563.807 105.888C560.949 105.592 559.379 103.962 558.036 101.59L552.558 105.791L544.176 105.793L547.638 93.5015L546.209 81.3891L537.082 100.071L529.457 105.795L521.859 105.789L522.537 102.904C522.543 102.866 522.534 102.657 522.505 102.679L522.338 102.794L518.07 105.784ZM582.653 94.6259L586.249 81.9834L587.579 76.6169C587.817 75.6551 587.611 74.7247 587.226 73.8522C586.667 72.5849 585.591 71.848 584.239 71.6401C583.012 71.4519 581.824 71.2344 580.578 71.3214L577.447 71.5402C573.776 72.2164 571.727 74.0816 569.929 77.288L565.355 94.1112C565.095 95.0676 565.108 96.0378 565.285 96.9675C565.432 97.7417 566.023 98.2361 566.618 98.6495C568.856 100.208 572.164 100.319 574.861 99.8709C578.42 99.2795 580.7 97.6392 582.653 94.6259ZM497.201 98.9467L504.787 72.4371H499.109L495.435 84.5338L494.086 72.4339L486.832 72.4362L479.708 98.9467L485.271 98.9499L489.397 84.8859L490.987 98.9521L497.201 98.9467ZM524.872 98.9306L531.49 84.8396L530.097 98.9554L536.205 98.9457L549.048 72.4352L543.219 72.4436L537.062 84.8008L538.218 72.4362L532.004 72.4339L526.185 84.5618L527.325 72.4362H506.858L499.62 98.9448L513.631 98.9531L515.33 94.0897H507.565L509.35 87.842L516.422 87.8282L517.864 82.9773H510.69L512.478 77.4094L520.019 77.4139L518.513 98.9544L524.868 98.9297L524.872 98.9306ZM572.681 72.4577L566.171 72.4285L560.429 81.5311L559.845 72.4339H553.238L555.339 88.0435L552.413 98.9512L558.791 98.9448L561.823 88.454L572.681 72.4577ZM603.855 88.5552C604.015 87.9898 603.951 87.2962 603.675 86.9085C603.318 86.4099 602.747 86.1728 602.159 85.8519L603.723 84.9816C604.253 84.6854 605.104 84.1406 605.3 83.4836L607.442 76.2864C607.686 75.4733 607.435 74.6085 607.066 73.9374C606.507 73.1792 605.794 72.6999 604.876 72.4481L590.566 72.4352L583.324 98.948L589.814 98.9544L592.936 88.3127L595.453 88.2989C595.826 88.2966 596.24 88.5195 596.565 88.7338C596.59 88.9352 596.635 89.253 596.593 89.42L594.092 98.9521H600.932L603.858 88.5571L603.855 88.5552ZM619.144 84.2729L628.519 72.4394L622.089 72.4371L614.581 80.6878L616.852 72.4371L610.133 72.4307L602.31 98.9425L609.317 98.9544L612.731 87.7495L614.809 98.9521L622.167 98.9467L619.141 84.272L619.144 84.2729Z" fill="#1F3E5B"/>
<path d="M657.978 104.286C654.4 105.942 650.89 106.312 647.052 105.332C644.872 104.775 643.105 103.167 642.563 100.988C642.216 99.6006 642.37 98.2125 642.547 96.7659C641.329 97.0136 640.064 97.1495 638.728 97.1L637.71 100.156L630.369 105.783L622.15 105.787L630.234 76.7536L636.901 71.453L651.189 71.4582C653.231 71.7695 653.787 72.6873 654.789 74.3963L657.483 72.6699C659.84 71.3236 662.387 70.8629 665.094 70.8414C667.185 70.825 669.202 71.0049 671.02 72.1003C671.877 72.6182 672.439 73.4894 672.995 74.3716L675.776 72.3448C677.847 71.1221 680.044 70.7325 682.43 70.6798C684.945 70.6236 687.321 71.0868 689.383 72.5697L690.979 71.454H708.151L706.497 77.5076L700.536 82.5953L695.562 100.021L688.31 105.559L680.513 105.555L681.666 101.045L677.446 103.626C675.84 104.493 674.244 105.219 672.461 105.638C670.933 105.963 669.443 105.884 667.888 105.721C664.918 105.411 663.508 104.413 661.664 102.15L657.978 104.286ZM670.724 99.272C672.548 100.053 674.443 100.12 676.367 99.9604C678.557 99.7792 680.49 99.131 682.33 97.9581C684.668 96.4655 686.104 94.1381 686.399 91.3522C686.756 88.0395 685.776 86.5961 683.512 84.2516L680.127 80.7471C679.562 80.1634 679.302 79.2404 679.315 78.491C679.328 77.5863 679.841 77.1176 680.625 76.9615C681.306 76.8259 681.916 76.868 682.401 77.3386C682.863 77.7823 683.005 78.3821 682.825 79.0747C682.757 79.8984 682.578 80.6556 682.247 81.5268L688.631 81.53L689.646 77.6014C689.861 76.7678 689.752 75.8448 689.662 74.9983C689.347 73.8772 688.596 73.0747 687.575 72.5276C686.425 71.914 685.128 71.8083 683.833 71.6577C682.305 71.4787 680.949 71.7177 679.485 72.029C678.194 72.3047 677.07 72.5999 676.001 73.4377C674.976 74.2421 673.817 74.9929 673.178 76.1992C672.516 77.444 672.246 78.8636 672.102 80.27C671.948 81.8059 673.046 83.4707 674.022 84.6953L676.267 87.5094L678.303 89.8854C679.077 90.9449 679.244 92.3063 678.557 93.4326C678.175 94.0575 677.452 94.2974 676.768 94.2987C676.155 94.2987 675.464 94.0208 675.101 93.4015C674.909 93.0699 674.883 92.4217 674.979 92.0381L675.477 90.0434L668.881 90.0457L668.075 92.8525C667.285 95.603 667.972 98.094 670.721 99.271L670.724 99.272ZM666.983 94.6466L669.423 86.5585L671.543 79.0907C672.092 77.1578 672.33 75.6187 671.517 73.7609C669.928 72.3564 668.039 71.7772 665.952 71.6801C661.552 71.4765 657.281 72.6603 654.734 76.381L649.593 94.1596C649.487 96.1337 649.573 97.5025 651.128 98.6562C652.158 99.4198 653.257 99.7407 654.512 99.9248C656.282 100.184 657.933 100.207 659.705 99.8804C663.106 99.255 665.281 97.6622 666.983 94.6466ZM650.668 87.3359L652.12 83.5667L653.739 77.2073C654.044 76.0083 653.854 73.988 652.833 73.2385C652.431 72.9382 651.914 72.614 651.394 72.4361L637.739 72.4428L630.327 98.962L636.702 98.9642L639.136 90.9696L644.634 91.0172C645.976 91.029 647.168 90.4129 648.314 89.7765C649.339 89.2262 650.232 88.47 650.668 87.3359ZM694.653 98.9511L700.787 77.4106L705.193 77.4064L706.638 72.4373L691.631 72.4396L690.362 77.1738L694.46 77.2018L688.333 98.9491L694.653 98.9511Z" fill="#1F3E5B"/>
<path d="M524.872 98.9308L518.516 98.9542L520.022 77.4138L512.482 77.4096L510.693 82.9765L517.867 82.9775L516.422 87.8284L509.35 87.8422L507.568 94.0899H515.333L513.631 98.9533L499.623 98.9459L506.858 72.435L527.325 72.4363L526.185 84.5619L532.004 72.4341L538.219 72.4363L537.062 84.7996L543.219 72.4428L549.048 72.4341L536.205 98.9446L530.097 98.9542L531.49 84.8385L524.872 98.9308Z" fill="white"/>
<path d="M497.201 98.9468L490.987 98.9533L489.397 84.887L485.271 98.9501L479.705 98.9468L486.828 72.4363L494.083 72.4341L495.435 84.5336L499.106 72.435L504.787 72.4373L497.201 98.9468Z" fill="white"/>
<path d="M603.855 88.5554L600.932 98.9523H594.092L596.593 89.4179C596.635 89.2512 596.593 88.9322 596.565 88.732C596.24 88.5178 595.826 88.2948 595.45 88.2971L592.936 88.3109L589.814 98.9523L583.324 98.9459L590.566 72.4331L604.876 72.446C605.798 72.6991 606.507 73.1784 607.066 73.9356C607.435 74.6076 607.686 75.4724 607.442 76.2842L605.297 83.4819C605.101 84.1388 604.25 84.6837 603.72 84.9799L602.159 85.8501C602.743 86.172 603.315 86.4091 603.672 86.9067C603.951 87.2954 604.015 87.99 603.855 88.5554ZM599.853 79.7823C600.078 79.0297 600.2 78.4048 599.991 77.6512C599.831 77.4379 599.477 77.1783 599.195 77.1793L596.125 77.1879L594.146 83.5455L597.396 83.5496C597.904 83.5496 598.543 83.1243 598.793 82.6858C599.32 81.7725 599.542 80.812 599.853 79.7823Z" fill="white"/>
<path d="M582.653 94.6263C580.703 97.6396 578.42 99.2796 574.861 99.871C572.164 100.319 568.853 100.208 566.618 98.6496C566.023 98.2362 565.429 97.7418 565.282 96.9676C565.105 96.0382 565.092 95.0677 565.352 94.1113L569.925 77.2881C571.724 74.082 573.773 72.2165 577.447 71.5403L580.578 71.3215C581.821 71.2345 583.012 71.452 584.239 71.6405C585.591 71.8484 586.667 72.585 587.226 73.8523C587.611 74.7249 587.813 75.6552 587.576 76.617L586.249 81.9835L582.653 94.6263ZM576.653 92.7855L580.697 78.1324C580.873 77.4841 580.18 76.9068 579.647 76.796C578.532 76.5634 577.472 76.8798 576.637 77.6726L572.244 92.7219C571.994 93.5771 572.411 94.385 573.291 94.5797C574.723 94.8955 576.207 94.4021 576.65 92.7855H576.653Z" fill="white"/>
<path d="M619.145 84.2729L622.17 98.9476L614.812 98.9531L612.734 87.7504L609.321 98.9544L602.31 98.9425L610.133 72.4307L616.852 72.4371L614.581 80.6878L622.093 72.4371L628.519 72.4393L619.145 84.2729Z" fill="white"/>
<path d="M572.681 72.458L561.823 88.4552L558.791 98.946L552.413 98.9524L555.339 88.0447L553.239 72.4351H559.845L560.429 81.5313L566.171 72.4297L572.681 72.458Z" fill="white"/>
<path d="M666.983 94.6467C665.284 97.6632 663.106 99.2537 659.706 99.8795C657.933 100.206 656.282 100.183 654.513 99.9238C653.26 99.7394 652.159 99.4198 651.128 98.6552C649.573 97.5016 649.487 96.1328 649.593 94.1587L654.734 76.3801C657.281 72.6593 661.552 71.4755 665.952 71.6792C668.039 71.7762 669.928 72.3554 671.517 73.7599C672.33 75.6177 672.092 77.1565 671.543 79.0898L669.423 86.5576L666.983 94.6467ZM660.717 93.8496L661.324 92.5389L665.059 79.0455C665.249 78.3586 665.31 77.498 664.629 77.0781C663.229 76.2133 660.981 76.8054 660.441 78.6545L656.372 92.6478C656.228 93.1464 656.353 94.0446 656.738 94.3267C657.952 95.2098 659.706 94.9644 660.717 93.8496Z" fill="white"/>
<path d="M670.724 99.2719C667.972 98.0948 667.285 95.6039 668.078 92.8533L668.884 90.0469L675.48 90.0446L674.983 92.0393C674.886 92.4225 674.912 93.0708 675.105 93.4026C675.468 94.0217 676.161 94.3009 676.771 94.2996C677.455 94.2996 678.178 94.0583 678.56 93.4338C679.247 92.3072 679.084 90.947 678.306 89.8862L676.27 87.5106L674.026 84.6965C673.049 83.4718 671.951 81.8068 672.105 80.2712C672.25 78.8645 672.519 77.4452 673.181 76.2C673.823 74.9941 674.979 74.2433 676.004 73.4389C677.073 72.6007 678.197 72.3058 679.488 72.0302C680.953 71.7179 682.308 71.4799 683.837 71.6585C685.131 71.8092 686.428 71.9149 687.578 72.5288C688.599 73.0759 689.351 73.878 689.665 74.9992C689.755 75.8447 689.865 76.7677 689.649 77.6023L688.635 81.5312L682.25 81.528C682.578 80.6567 682.761 79.8995 682.828 79.0755C683.008 78.3832 682.867 77.7844 682.404 77.3395C681.919 76.8689 681.306 76.8268 680.628 76.9627C679.845 77.1188 679.331 77.5862 679.318 78.4918C679.305 79.2416 679.565 80.1633 680.131 80.7483L683.515 84.2525C685.78 86.596 686.759 88.0394 686.403 91.3531C686.104 94.1402 684.672 96.4664 682.334 97.9593C680.494 99.1321 678.56 99.7804 676.37 99.9613C674.446 100.121 672.551 100.054 670.727 99.2732L670.724 99.2719Z" fill="white"/>
<path d="M650.668 87.3362C650.232 88.4703 649.339 89.2252 648.314 89.7755C647.168 90.4119 645.976 91.028 644.631 91.0162L639.136 90.9686L636.702 98.9629L630.324 98.961L637.739 72.4415L651.394 72.4351C651.915 72.6127 652.432 72.9372 652.833 73.2375C653.851 73.987 654.04 76.0074 653.739 77.2063L652.12 83.5657L650.665 87.335L650.668 87.3362ZM645.511 83.9284L646.847 79.1405C646.95 78.7688 646.991 78.0926 646.808 77.7919C646.182 76.7623 644.207 76.8442 642.887 77.2104L640.417 85.8154C641.05 86.2398 641.699 86.2302 642.364 86.2302C643.899 86.2279 645.106 85.3792 645.511 83.9284Z" fill="white"/>
<path d="M694.653 98.9512L688.333 98.947L694.457 77.2007L690.362 77.1727L691.631 72.4385L706.638 72.4375L705.193 77.4066L700.787 77.4098L694.653 98.9512Z" fill="white"/>
<path d="M599.853 79.7823C599.542 80.8119 599.32 81.7724 598.793 82.6857C598.543 83.123 597.904 83.5496 597.396 83.5496L594.146 83.5454L596.125 77.1879L599.195 77.1792C599.477 77.1792 599.831 77.4378 599.991 77.6511C600.2 78.4048 600.078 79.0296 599.853 79.7823Z" fill="#1F3E5B"/>
<path d="M576.653 92.7854C576.207 94.4019 574.723 94.8953 573.294 94.5799C572.411 94.3849 571.997 93.5769 572.244 92.7221L576.641 77.6725C577.472 76.8796 578.535 76.5632 579.647 76.7958C580.18 76.9066 580.876 77.4839 580.697 78.1322L576.653 92.7854Z" fill="#1F3E5B"/>
<path d="M660.717 93.8493C659.705 94.9641 657.952 95.2095 656.738 94.3264C656.353 94.0443 656.227 93.1461 656.372 92.6475L660.441 78.6545C660.98 76.8054 663.229 76.213 664.629 77.0778C665.31 77.4977 665.248 78.3583 665.059 79.0455L661.324 92.5386L660.717 93.8493Z" fill="#1F3E5B"/>
<path d="M645.511 83.9284C645.109 85.3788 643.899 86.2266 642.364 86.2288C641.699 86.2288 641.05 86.2385 640.417 85.8141L642.887 77.2091C644.207 76.8429 646.182 76.761 646.808 77.7906C646.991 78.0912 646.95 78.7675 646.847 79.1388L645.514 83.9271L645.511 83.9284Z" fill="#1F3E5B"/>
</g>
<defs>
<linearGradient id="paint0_linear_7738_300" x1="38.5377" y1="96.3751" x2="244.072" y2="96.3751" gradientUnits="userSpaceOnUse">
<stop stop-color="#EAA82E"/>
<stop offset="1" stop-color="#FFCB6C"/>
</linearGradient>
</defs>
</svg>
